<?xml version="1.0" standalone="no"?>
<!DOCTYPE svg PUBLIC "-//W3C//DTD SVG 20010904//EN"
 "http://www.w3.org/TR/2001/REC-SVG-20010904/DTD/svg10.dtd">
<svg version="1.0" xmlns="http://www.w3.org/2000/svg"
 width="583.000000pt" height="354.000000pt" viewBox="0 0 583.000000 354.000000"
 preserveAspectRatio="xMidYMid meet">
<metadata>
Created by potrace 1.15, written by Peter Selinger 2001-2017
</metadata>
<g transform="translate(0.000000,354.000000) scale(0.100000,-0.100000)"
fill="#000000" stroke="none">
<path d="M210 2540 l0 -610 284 0 c310 0 351 6 449 64 215 125 310 523 200
831 -58 159 -159 261 -304 306 -54 17 -94 19 -345 19 l-284 0 0 -610z m558
334 c224 -93 230 -564 7 -665 -32 -15 -66 -19 -167 -19 l-128 0 0 350 0 350
125 0 c91 0 136 -4 163 -16z"/>
<path d="M4180 2925 l0 -125 -60 0 -60 0 0 -110 0 -110 60 0 60 0 0 -198 c0
-221 8 -265 61 -345 17 -26 50 -58 73 -72 52 -30 162 -48 244 -40 l62 7 0 128
0 128 -64 -5 c-59 -5 -66 -4 -90 20 -26 26 -26 26 -26 202 l0 175 90 0 90 0 0
110 0 110 -90 0 -90 0 0 125 0 125 -130 0 -130 0 0 -125z"/>
<path d="M1973 2814 c-95 -35 -182 -148 -219 -284 -27 -102 -25 -277 4 -362
37 -106 94 -175 187 -226 46 -25 59 -27 160 -27 96 0 115 3 148 23 21 12 41
22 44 22 13 0 -5 -150 -21 -175 -40 -61 -121 -81 -185 -47 -35 19 -71 72 -71
104 0 16 -12 18 -131 18 l-132 0 6 -59 c10 -117 75 -216 174 -268 82 -43 150
-57 252 -50 182 10 304 96 351 246 19 60 20 90 20 572 l0 509 -130 0 c-122 0
-130 -1 -130 -19 0 -18 -3 -18 -47 7 -41 23 -62 27 -143 29 -66 2 -108 -2
-137 -13z m246 -281 c98 -72 93 -273 -9 -341 -65 -44 -152 -16 -192 62 -67
129 18 318 136 303 22 -3 51 -14 65 -24z"/>
<path d="M3079 2816 c-20 -8 -50 -21 -67 -30 -31 -16 -32 -16 -32 4 0 19 -6
20 -130 20 l-130 0 0 -440 0 -440 130 0 129 0 3 281 3 281 36 32 c50 46 98 54
157 24 79 -40 82 -51 82 -355 l0 -263 130 0 130 0 0 293 c0 212 -4 306 -14
342 -29 110 -86 184 -179 232 -63 32 -189 42 -248 19z"/>
<path d="M5025 2814 c-63 -20 -146 -75 -180 -119 -106 -140 -133 -366 -65
-548 30 -79 104 -158 188 -199 60 -30 77 -33 169 -36 147 -5 243 31 318 120
35 41 84 144 92 192 l6 36 -136 0 c-127 0 -137 -1 -147 -21 -33 -61 -144 -79
-200 -32 -30 25 -38 38 -54 91 l-7 22 282 0 282 0 -7 74 c-18 202 -112 352
-254 407 -75 29 -216 35 -287 13z"/>
<path d="M1330 2370 l0 -440 130 0 130 0 0 440 0 440 -130 0 -130 0 0 -440z"/>
<path d="M3670 2370 l0 -440 135 0 135 0 0 440 0 440 -135 0 -135 0 0 -440z"/>
<path d="M3310 1581 l0 -230 -57 26 c-48 22 -72 27 -140 26 -72 0 -91 -4 -147
-32 -37 -18 -79 -48 -96 -69 -45 -54 -86 -146 -104 -234 -52 -254 28 -476 202
-556 43 -20 78 -27 144 -30 76 -4 92 -1 142 21 44 21 56 23 56 11 0 -12 21
-14 133 -12 l132 3 3 653 2 652 -135 0 -135 0 0 -229z m-80 -474 c46 -30 70
-75 77 -141 11 -108 -33 -192 -114 -216 -59 -18 -123 12 -155 72 -33 63 -32
167 2 226 45 80 124 104 190 59z"/>
<path d="M3680 1680 l0 -130 130 0 130 0 0 130 0 130 -130 0 -130 0 0 -130z"/>
<path d="M555 1721 c-201 -59 -299 -169 -312 -353 -10 -141 33 -236 130 -292
51 -30 171 -60 340 -85 183 -28 237 -65 215 -147 -17 -66 -123 -124 -223 -124
-104 0 -208 59 -221 126 l-6 34 -135 0 -134 0 6 -37 c14 -83 18 -100 40 -143
45 -90 144 -159 280 -195 80 -22 260 -22 340 0 247 65 373 264 306 483 -16 54
-30 77 -60 105 -75 68 -175 103 -373 132 -202 30 -255 59 -245 138 11 81 85
137 190 145 107 8 199 -52 213 -138 l7 -40 97 0 c54 0 112 3 130 6 l32 7 -5
53 c-12 118 -105 248 -210 294 -117 52 -286 65 -402 31z"/>
<path d="M1307 1613 c-4 -3 -7 -60 -7 -125 l0 -118 -55 0 -55 0 0 -110 0 -110
55 0 55 0 0 -157 c0 -239 23 -338 93 -411 60 -63 98 -76 235 -80 l122 -4 0
130 0 130 -71 -2 c-107 -2 -109 2 -109 220 l0 174 90 0 90 0 0 110 0 110 -90
0 -90 0 0 125 0 125 -128 0 c-71 0 -132 -3 -135 -7z"/>
<path d="M4372 1399 c-164 -21 -283 -136 -322 -309 -18 -84 -9 -281 17 -352
42 -115 123 -198 228 -235 36 -13 81 -18 160 -18 98 0 116 3 167 27 31 14 76
45 101 67 171 158 184 524 24 707 -49 56 -138 101 -223 114 -38 5 -73 9 -79 9
-5 -1 -38 -5 -73 -10z m144 -289 c90 -56 101 -240 18 -321 -89 -86 -216 -19
-231 123 -7 75 11 135 57 180 32 32 44 38 80 38 25 0 56 -8 76 -20z"/>
<path d="M1850 1128 c0 -145 4 -291 9 -325 19 -127 89 -232 191 -285 35 -18
65 -24 132 -26 81 -4 93 -2 153 26 61 29 65 30 65 11 0 -18 8 -19 130 -19
l130 0 0 440 0 440 -130 0 -130 0 0 -261 c0 -250 -1 -263 -22 -300 -23 -41
-84 -79 -126 -79 -36 0 -87 25 -110 55 -21 27 -22 36 -22 306 l0 279 -135 0
-135 0 0 -262z"/>
<path d="M3680 940 l0 -440 130 0 130 0 0 440 0 440 -130 0 -130 0 0 -440z"/>
</g>
</svg>
