<svg id="svg" version="1.1" xmlns="http://www.w3.org/2000/svg" xmlns:xlink="http://www.w3.org/1999/xlink" width="400" height="387.17067583046963" viewBox="0, 0, 400,387.17067583046963"><g id="svgg"><path id="path0" d="M62.887 7.492 C 43.271 8.840,32.560 18.656,32.536 35.308 C 32.513 51.079,43.090 61.549,60.545 63.034 C 82.952 64.941,98.529 49.646,94.705 29.492 C 92.753 19.197,83.757 10.238,73.482 8.354 L 72.623 8.196 72.623 17.023 L 72.623 25.850 73.392 26.326 C 78.792 29.663,79.499 38.849,74.685 43.119 C 73.106 44.520,69.441 46.048,67.661 46.048 C 67.407 46.048,67.354 42.717,67.354 26.690 L 67.354 7.331 65.693 7.372 C 64.779 7.395,63.517 7.449,62.887 7.492 M55.212 35.395 C 55.212 41.669,55.137 44.444,54.967 44.444 C 54.588 44.444,52.887 43.201,52.098 42.347 C 48.809 38.790,48.740 31.925,51.959 28.551 C 52.779 27.691,54.651 26.346,55.028 26.346 C 55.129 26.346,55.212 30.418,55.212 35.395 M77.719 75.086 C 78.547 79.000,77.902 82.078,75.880 83.858 C 74.069 85.452,74.068 85.452,60.210 85.452 L 47.881 85.452 47.881 79.381 L 47.881 73.310 40.779 73.310 L 33.677 73.310 33.677 79.381 L 33.677 85.452 25.430 85.452 L 17.182 85.452 17.182 93.700 L 17.182 101.947 25.430 101.947 L 33.677 101.947 33.677 106.071 L 33.677 110.195 40.779 110.195 L 47.881 110.195 47.881 106.071 L 47.881 101.947 60.738 101.947 C 76.503 101.947,78.876 101.679,83.505 99.377 C 91.294 95.503,95.307 85.804,93.672 74.809 L 93.415 73.081 85.355 73.081 L 77.294 73.081 77.719 75.086 M33.677 128.751 L 33.677 136.999 63.459 136.999 L 93.242 136.999 93.242 128.751 L 93.242 120.504 63.459 120.504 L 33.677 120.504 33.677 128.751 M54.335 149.624 C 45.176 150.688,37.878 155.486,34.357 162.759 C 30.803 170.102,31.649 179.599,36.419 185.901 L 37.553 187.400 35.615 187.400 L 33.677 187.400 33.677 195.647 L 33.677 203.895 63.459 203.895 L 93.242 203.895 93.242 195.651 L 93.242 187.408 74.971 187.347 L 56.701 187.285 55.212 186.573 C 47.273 182.776,48.299 169.323,56.694 167.136 C 57.868 166.831,60.500 166.781,75.650 166.781 L 93.242 166.781 93.242 158.076 L 93.242 149.370 74.628 149.400 C 64.390 149.416,55.258 149.517,54.335 149.624 M33.677 224.504 L 33.677 232.742 35.504 232.809 L 37.332 232.875 36.412 234.021 C 31.592 240.024,30.621 249.760,34.159 256.596 C 44.027 275.662,81.155 276.406,92.409 257.762 C 96.521 250.951,95.902 240.353,91.027 234.078 L 90.004 232.761 95.469 232.761 C 99.581 232.761,101.261 232.845,102.250 233.103 C 113.074 235.923,111.853 251.879,100.706 253.272 L 99.427 253.432 99.427 261.673 L 99.427 269.913 101.203 269.764 C 107.105 269.269,111.793 267.556,115.617 264.496 C 129.985 253.000,127.824 227.172,111.823 219.143 C 105.880 216.160,107.544 216.269,67.640 216.267 L 33.677 216.266 33.677 224.504 M69.043 233.907 C 75.285 235.287,78.182 239.015,77.835 245.219 C 77.444 252.179,71.979 255.817,62.585 255.371 C 54.228 254.974,49.727 251.149,49.716 244.435 C 49.703 236.091,58.138 231.496,69.043 233.907 M33.677 291.409 L 33.677 299.656 63.459 299.656 L 93.242 299.656 93.242 291.409 L 93.242 283.162 63.459 283.162 L 33.677 283.162 33.677 291.409 M46.735 311.568 C 29.019 313.181,15.702 321.827,11.446 334.479 C 9.966 338.877,10.004 338.286,9.911 358.935 L 9.827 377.778 32.462 377.778 C 44.911 377.778,63.685 377.847,74.181 377.930 L 93.264 378.083 93.177 359.087 C 93.083 338.394,93.124 339.080,91.723 334.828 C 86.654 319.443,67.727 309.657,46.735 311.568 M58.714 328.054 C 67.912 330.027,73.802 334.168,76.007 340.211 L 76.632 341.924 76.703 351.718 L 76.774 361.512 51.551 361.512 L 26.328 361.512 26.394 351.489 L 26.460 341.466 27.062 339.822 C 30.465 330.516,45.000 325.112,58.714 328.054 " stroke="none" fill="#fbfbfb" fill-rule="evenodd"></path><path id="path1" d="M68.041 26.569 C 68.041 40.476,68.112 45.819,68.295 45.819 C 71.395 45.819,75.855 42.676,76.979 39.699 C 78.876 34.675,76.776 27.404,73.090 26.234 C 72.631 26.088,72.623 25.938,72.623 17.048 L 72.623 8.010 73.253 8.153 C 84.756 10.777,93.184 19.360,94.950 30.247 C 97.599 46.581,87.619 60.051,70.905 62.700 C 69.645 62.900,68.485 63.098,68.328 63.140 C 68.103 63.199,68.041 65.639,68.041 74.367 L 68.041 85.517 70.504 85.391 C 76.685 85.074,79.114 81.448,77.570 74.843 C 77.369 73.984,77.205 73.237,77.205 73.182 C 77.205 72.866,93.428 73.098,93.550 73.416 C 93.892 74.307,94.201 78.929,94.068 81.159 C 93.234 95.106,85.158 102.102,69.817 102.169 L 68.041 102.176 68.041 111.340 L 68.041 120.504 80.641 120.504 L 93.242 120.504 93.242 128.751 L 93.242 136.999 80.641 136.999 L 68.041 136.999 68.041 143.070 L 68.041 149.141 80.641 149.141 L 93.242 149.141 93.242 158.076 L 93.242 167.010 80.641 167.010 L 68.041 167.010 68.041 177.205 L 68.041 187.400 80.641 187.400 L 93.242 187.400 93.242 195.762 L 93.242 204.124 80.641 204.124 L 68.041 204.124 68.041 210.080 L 68.041 216.037 83.333 216.043 C 100.065 216.051,103.208 216.187,106.644 217.052 C 117.898 219.886,125.306 230.214,125.306 243.070 C 125.306 257.998,115.479 269.004,101.429 269.812 L 99.192 269.941 99.253 261.603 L 99.313 253.265 100.843 253.096 C 112.517 251.806,112.547 234.516,100.878 232.977 C 99.891 232.847,97.097 232.771,94.669 232.808 L 90.254 232.875 91.200 234.135 C 95.322 239.618,96.479 248.335,93.954 254.882 C 90.788 263.091,80.469 269.971,69.572 271.138 L 68.041 271.302 68.041 277.232 L 68.041 283.162 80.641 283.162 L 93.242 283.162 93.242 291.523 L 93.242 299.885 80.641 299.885 L 68.041 299.885 68.041 306.765 C 68.041 313.116,68.072 313.656,68.442 313.775 C 82.074 318.192,90.907 327.326,92.878 339.044 C 93.189 340.890,93.242 343.857,93.242 359.497 L 93.242 377.790 155.956 377.714 C 223.434 377.632,219.329 377.699,229.095 376.513 C 290.936 369.000,346.728 329.359,375.050 272.811 C 407.466 208.089,397.726 129.233,350.392 73.185 C 332.934 52.512,306.478 32.092,284.683 22.468 C 274.280 17.874,268.164 16.036,248.797 11.680 C 241.552 10.051,232.886 8.732,223.711 7.864 C 219.943 7.508,213.049 7.467,143.814 7.397 L 68.041 7.319 68.041 26.569 M216.151 91.874 C 259.509 95.038,294.405 123.452,305.988 165.022 C 306.746 167.744,308.391 175.285,308.258 175.432 C 308.229 175.465,306.279 174.502,303.925 173.293 C 282.595 162.333,258.685 155.839,225.544 152.002 C 177.506 146.440,159.905 136.162,159.885 113.662 C 159.878 105.713,164.376 97.519,171.458 92.583 L 172.814 91.638 192.879 91.639 C 204.284 91.639,214.328 91.741,216.151 91.874 M161.557 209.520 C 173.800 213.691,188.320 217.232,203.275 219.692 C 208.805 220.601,211.774 221.023,223.482 222.564 C 255.944 226.837,269.173 232.059,283.792 246.370 C 287.115 249.624,286.992 248.983,284.838 251.844 C 274.617 265.419,260.061 278.037,247.766 283.979 C 233.273 290.984,213.900 293.277,197.839 289.889 C 177.501 285.599,164.218 274.910,158.590 258.305 L 157.503 255.097 157.441 231.672 C 157.402 216.721,157.460 208.247,157.601 208.247 C 157.723 208.247,159.503 208.820,161.557 209.520 M68.041 244.463 L 68.041 255.019 68.786 254.862 C 79.974 252.507,81.375 237.836,70.733 234.474 C 67.710 233.520,68.041 232.292,68.041 244.463 M68.041 346.378 L 68.041 361.283 72.417 361.283 L 76.793 361.283 76.693 351.833 C 76.582 341.351,76.519 340.871,74.861 337.948 C 73.689 335.882,70.693 332.988,68.328 331.637 C 68.100 331.507,68.041 334.520,68.041 346.378 " stroke="none" fill="#fbbb04" fill-rule="evenodd"></path><path id="path2" d="M67.868 26.518 L 67.924 45.934 67.984 26.633 L 68.044 7.332 141.067 7.274 L 214.089 7.216 140.951 7.159 L 67.812 7.102 67.868 26.518 M216.667 7.499 C 217.202 7.547,218.078 7.547,218.614 7.499 C 219.149 7.451,218.711 7.411,217.640 7.411 C 216.569 7.411,216.131 7.451,216.667 7.499 M221.024 7.726 C 221.435 7.777,222.054 7.776,222.398 7.724 C 222.742 7.672,222.405 7.630,221.649 7.631 C 220.893 7.632,220.612 7.675,221.024 7.726 M224.115 7.954 C 224.464 8.006,224.979 8.005,225.261 7.950 C 225.543 7.896,225.258 7.853,224.628 7.855 C 223.998 7.856,223.767 7.901,224.115 7.954 M226.750 8.180 C 227.034 8.235,227.447 8.233,227.666 8.176 C 227.885 8.118,227.652 8.074,227.148 8.076 C 226.644 8.079,226.465 8.126,226.750 8.180 M228.923 8.405 C 229.144 8.463,229.505 8.463,229.725 8.405 C 229.946 8.348,229.765 8.301,229.324 8.301 C 228.883 8.301,228.703 8.348,228.923 8.405 M230.873 8.639 C 231.158 8.693,231.571 8.691,231.790 8.634 C 232.009 8.577,231.775 8.532,231.271 8.534 C 230.767 8.537,230.588 8.584,230.873 8.639 M234.422 9.093 C 234.642 9.150,235.003 9.150,235.223 9.093 C 235.444 9.035,235.263 8.988,234.822 8.988 C 234.381 8.988,234.201 9.035,234.422 9.093 M267.698 16.266 C 267.950 16.374,268.310 16.463,268.499 16.463 C 268.716 16.463,268.674 16.390,268.385 16.266 C 268.133 16.157,267.772 16.069,267.583 16.069 C 267.366 16.069,267.409 16.142,267.698 16.266 M270.332 17.068 C 270.773 17.237,271.289 17.376,271.478 17.376 C 271.667 17.376,271.460 17.237,271.019 17.068 C 270.578 16.898,270.063 16.759,269.874 16.759 C 269.685 16.759,269.891 16.898,270.332 17.068 M273.540 18.060 C 273.729 18.177,274.141 18.341,274.456 18.425 C 274.854 18.532,274.924 18.514,274.685 18.366 C 274.496 18.249,274.084 18.085,273.769 18.001 C 273.371 17.894,273.301 17.912,273.540 18.060 M283.849 22.108 C 284.164 22.288,284.525 22.435,284.651 22.435 C 284.777 22.435,284.622 22.288,284.307 22.108 C 283.992 21.928,283.631 21.780,283.505 21.780 C 283.379 21.780,283.534 21.928,283.849 22.108 M285.911 23.024 C 286.226 23.204,286.586 23.351,286.712 23.351 C 286.838 23.351,286.684 23.204,286.369 23.024 C 286.054 22.844,285.693 22.697,285.567 22.697 C 285.441 22.697,285.596 22.844,285.911 23.024 M289.366 24.600 C 289.600 24.813,291.867 25.884,291.867 25.781 C 291.867 25.652,289.679 24.513,289.431 24.513 C 289.343 24.513,289.314 24.552,289.366 24.600 M293.929 26.907 C 293.929 26.970,294.238 27.181,294.616 27.377 C 294.994 27.572,295.304 27.681,295.304 27.618 C 295.304 27.555,294.994 27.343,294.616 27.148 C 294.238 26.952,293.929 26.844,293.929 26.907 M295.991 28.052 C 295.991 28.115,296.300 28.327,296.678 28.522 C 297.056 28.718,297.365 28.826,297.365 28.763 C 297.365 28.700,297.056 28.489,296.678 28.293 C 296.300 28.098,295.991 27.989,295.991 28.052 M297.595 28.969 C 297.595 29.032,297.904 29.243,298.282 29.439 C 298.660 29.634,298.969 29.743,298.969 29.680 C 298.969 29.617,298.660 29.405,298.282 29.210 C 297.904 29.014,297.595 28.906,297.595 28.969 M304.696 33.288 C 304.696 33.340,305.289 33.764,306.014 34.229 C 306.738 34.694,307.049 34.834,306.705 34.542 C 306.024 33.963,304.696 33.134,304.696 33.288 M308.820 36.051 C 308.820 36.114,309.129 36.386,309.507 36.655 C 309.885 36.924,310.195 37.093,310.195 37.030 C 310.195 36.967,309.885 36.695,309.507 36.426 C 309.129 36.157,308.820 35.988,308.820 36.051 M310.479 37.247 C 310.554 37.368,311.106 37.819,311.705 38.250 C 312.305 38.680,312.734 38.933,312.659 38.812 C 312.584 38.692,312.033 38.240,311.433 37.810 C 310.834 37.380,310.405 37.126,310.479 37.247 M313.860 39.721 C 313.860 39.784,314.479 40.312,315.235 40.893 C 315.991 41.475,316.609 41.900,316.609 41.837 C 316.609 41.774,315.991 41.246,315.235 40.664 C 314.479 40.083,313.860 39.658,313.860 39.721 M316.894 42.058 C 316.969 42.179,317.520 42.630,318.120 43.061 C 318.719 43.491,319.149 43.744,319.074 43.623 C 318.999 43.503,318.448 43.051,317.848 42.621 C 317.249 42.191,316.819 41.937,316.894 42.058 M320.275 44.532 C 320.275 44.595,320.893 45.123,321.649 45.704 C 322.405 46.286,323.024 46.711,323.024 46.648 C 323.024 46.585,322.405 46.057,321.649 45.475 C 320.893 44.894,320.275 44.469,320.275 44.532 M325.544 48.633 C 325.544 48.687,326.859 49.833,328.465 51.181 C 330.072 52.529,330.819 53.104,330.126 52.460 C 328.647 51.085,325.544 48.493,325.544 48.633 M332.407 54.582 C 333.357 55.593,333.562 55.775,333.562 55.603 C 333.562 55.566,333.073 55.077,332.474 54.515 L 331.386 53.494 332.407 54.582 M336.744 58.597 C 338.432 60.228,341.147 62.943,342.778 64.630 L 345.744 67.698 342.840 64.568 C 341.243 62.847,338.528 60.131,336.807 58.534 L 333.677 55.630 336.744 58.597 M67.918 74.227 C 67.918 80.464,67.948 83.015,67.984 79.897 C 68.020 76.778,68.020 71.675,67.984 68.557 C 67.948 65.438,67.918 67.990,67.918 74.227 M346.611 68.786 C 347.561 69.797,347.766 69.979,347.766 69.807 C 347.766 69.770,347.277 69.281,346.678 68.719 L 345.590 67.698 346.611 68.786 M350.194 72.910 C 351.542 74.516,352.688 75.830,352.741 75.830 C 352.881 75.830,350.290 72.728,348.915 71.249 C 348.270 70.556,348.846 71.303,350.194 72.910 M355.326 79.267 C 355.726 79.771,356.104 80.183,356.167 80.183 C 356.230 80.183,355.955 79.771,355.556 79.267 C 355.156 78.763,354.778 78.351,354.715 78.351 C 354.652 78.351,354.927 78.763,355.326 79.267 M358.763 83.849 C 359.032 84.227,359.304 84.536,359.367 84.536 C 359.430 84.536,359.261 84.227,358.992 83.849 C 358.723 83.471,358.451 83.162,358.388 83.162 C 358.325 83.162,358.494 83.471,358.763 83.849 M359.908 85.452 C 360.178 85.830,360.449 86.140,360.512 86.140 C 360.575 86.140,360.407 85.830,360.137 85.452 C 359.868 85.074,359.597 84.765,359.534 84.765 C 359.471 84.765,359.639 85.074,359.908 85.452 M361.512 87.743 C 362.025 88.499,362.497 89.118,362.560 89.118 C 362.623 89.118,362.255 88.499,361.741 87.743 C 361.228 86.987,360.756 86.369,360.693 86.369 C 360.630 86.369,360.999 86.987,361.512 87.743 M363.923 91.310 C 364.136 91.696,364.514 92.263,364.763 92.570 L 365.216 93.127 364.829 92.425 C 364.616 92.038,364.238 91.471,363.988 91.165 L 363.536 90.607 363.923 91.310 M171.227 92.757 C 170.357 93.373,169.336 94.220,168.958 94.641 C 168.373 95.290,168.425 95.267,169.301 94.487 C 169.868 93.982,170.848 93.212,171.478 92.776 L 172.623 91.982 193.471 91.865 L 214.318 91.748 193.564 91.693 L 172.810 91.638 171.227 92.757 M215.865 92.031 C 216.211 92.084,216.778 92.084,217.125 92.031 C 217.471 91.979,217.188 91.936,216.495 91.936 C 215.802 91.936,215.518 91.979,215.865 92.031 M218.729 92.258 C 219.012 92.313,219.476 92.313,219.759 92.258 C 220.043 92.203,219.811 92.159,219.244 92.159 C 218.677 92.159,218.445 92.203,218.729 92.258 M220.905 92.483 C 221.125 92.541,221.486 92.541,221.707 92.483 C 221.927 92.426,221.747 92.378,221.306 92.378 C 220.865 92.378,220.684 92.426,220.905 92.483 M222.738 92.712 C 222.958 92.770,223.319 92.770,223.540 92.712 C 223.760 92.655,223.580 92.608,223.139 92.608 C 222.698 92.608,222.517 92.655,222.738 92.712 M365.835 94.273 C 365.959 94.525,366.228 94.937,366.433 95.189 L 366.806 95.647 366.582 95.189 C 366.458 94.937,366.189 94.525,365.984 94.273 L 365.610 93.814 365.835 94.273 M166.911 96.624 C 166.235 97.410,166.082 97.662,166.531 97.251 C 167.211 96.628,168.293 95.299,168.114 95.306 C 168.074 95.308,167.533 95.901,166.911 96.624 M237.457 95.762 C 237.709 95.870,238.070 95.959,238.259 95.959 C 238.475 95.959,238.433 95.886,238.144 95.762 C 237.892 95.653,237.532 95.565,237.342 95.565 C 237.126 95.565,237.168 95.638,237.457 95.762 M239.748 96.449 C 240.000 96.557,240.361 96.646,240.550 96.646 C 240.766 96.646,240.724 96.573,240.435 96.449 C 240.183 96.341,239.822 96.252,239.633 96.252 C 239.417 96.252,239.459 96.325,239.748 96.449 M242.612 97.327 C 242.801 97.444,243.213 97.608,243.528 97.692 C 243.926 97.799,243.996 97.781,243.757 97.633 C 243.568 97.516,243.156 97.352,242.841 97.268 C 242.443 97.161,242.373 97.179,242.612 97.327 M165.375 98.454 C 164.716 99.249,164.436 99.656,164.550 99.656 C 164.613 99.656,164.940 99.296,165.277 98.855 C 165.901 98.036,165.976 97.727,165.375 98.454 M369.187 99.885 C 369.382 100.263,369.594 100.573,369.657 100.573 C 369.720 100.573,369.611 100.263,369.416 99.885 C 369.220 99.507,369.009 99.198,368.946 99.198 C 368.883 99.198,368.991 99.507,369.187 99.885 M252.234 101.260 C 252.675 101.501,253.139 101.699,253.265 101.699 C 253.391 101.699,253.133 101.501,252.692 101.260 C 252.251 101.019,251.787 100.821,251.661 100.821 C 251.535 100.821,251.793 101.019,252.234 101.260 M370.103 101.489 C 370.299 101.867,370.510 102.176,370.573 102.176 C 370.636 102.176,370.528 101.867,370.332 101.489 C 370.137 101.111,369.925 100.802,369.862 100.802 C 369.799 100.802,369.908 101.111,370.103 101.489 M163.001 101.947 C 162.806 102.325,162.697 102.635,162.760 102.635 C 162.823 102.635,163.035 102.325,163.230 101.947 C 163.426 101.569,163.534 101.260,163.471 101.260 C 163.408 101.260,163.197 101.569,163.001 101.947 M67.917 111.226 C 67.917 116.392,67.947 118.538,67.984 115.995 C 68.020 113.452,68.021 109.225,67.984 106.602 C 67.947 103.979,67.917 106.060,67.917 111.226 M371.249 103.551 C 371.444 103.929,371.656 104.238,371.719 104.238 C 371.782 104.238,371.673 103.929,371.478 103.551 C 371.282 103.173,371.071 102.864,371.008 102.864 C 370.945 102.864,371.053 103.173,371.249 103.551 M256.357 103.198 C 256.357 103.261,256.770 103.523,257.274 103.780 C 257.778 104.037,258.190 104.196,258.190 104.133 C 258.190 104.070,257.778 103.808,257.274 103.551 C 256.770 103.294,256.357 103.135,256.357 103.198 M258.877 104.570 C 258.877 104.633,259.187 104.845,259.565 105.040 C 259.943 105.236,260.252 105.344,260.252 105.281 C 260.252 105.218,259.943 105.006,259.565 104.811 C 259.187 104.616,258.877 104.507,258.877 104.570 M372.967 106.758 C 373.348 107.514,373.712 108.133,373.775 108.133 C 373.838 108.133,373.578 107.514,373.196 106.758 C 372.814 106.002,372.450 105.384,372.387 105.384 C 372.324 105.384,372.585 106.002,372.967 106.758 M263.116 107.106 C 263.368 107.311,263.780 107.580,264.032 107.704 L 264.490 107.929 264.032 107.556 C 263.780 107.351,263.368 107.082,263.116 106.958 L 262.658 106.733 263.116 107.106 M266.667 109.371 C 266.667 109.434,267.131 109.805,267.698 110.195 C 268.265 110.585,268.729 110.852,268.729 110.789 C 268.729 110.726,268.265 110.356,267.698 109.966 C 267.131 109.576,266.667 109.308,266.667 109.371 M159.962 110.882 C 159.962 111.323,160.009 111.503,160.066 111.283 C 160.124 111.062,160.124 110.702,160.066 110.481 C 160.009 110.261,159.962 110.441,159.962 110.882 M375.508 111.684 C 375.508 111.810,375.808 112.480,376.174 113.173 C 376.540 113.866,376.840 114.330,376.840 114.204 C 376.840 114.078,376.540 113.408,376.174 112.715 C 375.808 112.022,375.508 111.558,375.508 111.684 M270.790 112.330 C 270.790 112.387,271.538 113.034,272.451 113.768 C 273.365 114.501,273.983 114.940,273.826 114.744 C 273.490 114.324,270.790 112.178,270.790 112.330 M274.227 115.077 C 274.227 115.117,274.562 115.452,274.971 115.822 L 275.716 116.495 275.043 115.750 C 274.416 115.056,274.227 114.900,274.227 115.077 M159.974 116.495 C 159.976 117.125,160.020 117.355,160.073 117.007 C 160.125 116.659,160.124 116.143,160.070 115.862 C 160.015 115.580,159.972 115.865,159.974 116.495 M377.336 115.578 C 377.336 115.704,377.483 116.065,377.663 116.380 C 377.843 116.695,377.991 116.850,377.991 116.724 C 377.991 116.598,377.843 116.237,377.663 115.922 C 377.483 115.607,377.336 115.452,377.336 115.578 M276.737 117.354 C 277.687 118.365,277.892 118.547,277.892 118.375 C 277.892 118.339,277.403 117.849,276.804 117.287 L 275.716 116.266 276.737 117.354 M279.954 120.389 C 281.020 121.460,281.943 122.337,282.006 122.337 C 282.069 122.337,281.249 121.460,280.183 120.389 C 279.118 119.318,278.195 118.442,278.132 118.442 C 278.069 118.442,278.889 119.318,279.954 120.389 M283.568 124.284 C 285.927 126.988,286.785 127.888,285.651 126.468 C 285.101 125.780,284.048 124.594,283.310 123.834 C 282.112 122.597,282.139 122.645,283.568 124.284 M162.199 125.857 C 162.199 126.105,163.338 128.293,163.467 128.293 C 163.530 128.293,163.310 127.752,162.977 127.090 C 162.338 125.818,162.199 125.598,162.199 125.857 M287.374 128.819 C 287.859 129.412,288.305 129.897,288.363 129.897 C 288.519 129.897,287.068 128.099,286.757 127.906 C 286.611 127.816,286.888 128.227,287.374 128.819 M165.151 131.005 C 165.406 131.363,165.795 131.801,166.017 131.979 C 166.238 132.157,166.071 131.864,165.646 131.329 C 164.772 130.229,164.447 130.017,165.151 131.005 M383.650 131.271 C 383.728 131.586,383.932 132.153,384.104 132.532 C 384.355 133.083,384.389 133.106,384.276 132.646 C 384.199 132.331,383.995 131.764,383.823 131.386 C 383.571 130.834,383.538 130.811,383.650 131.271 M290.263 132.646 C 290.533 133.024,290.804 133.333,290.867 133.333 C 290.930 133.333,290.762 133.024,290.493 132.646 C 290.223 132.268,289.952 131.959,289.889 131.959 C 289.826 131.959,289.994 132.268,290.263 132.646 M167.239 133.414 C 167.806 134.021,168.786 134.939,169.416 135.455 C 170.740 136.539,170.342 136.123,167.927 133.896 C 166.810 132.866,166.569 132.698,167.239 133.414 M292.120 135.338 C 293.240 137.017,294.012 138.018,293.578 137.228 C 293.160 136.467,291.158 133.562,291.051 133.562 C 290.988 133.562,291.469 134.361,292.120 135.338 M384.915 134.937 C 384.915 135.126,385.054 135.641,385.223 136.082 C 385.393 136.523,385.532 136.730,385.532 136.541 C 385.532 136.352,385.393 135.836,385.223 135.395 C 385.054 134.954,384.915 134.748,384.915 134.937 M67.913 143.184 C 67.913 146.649,67.944 148.067,67.983 146.334 C 68.022 144.602,68.022 141.767,67.983 140.034 C 67.944 138.302,67.913 139.719,67.913 143.184 M172.104 137.509 C 172.784 138.087,174.112 138.916,174.112 138.762 C 174.112 138.710,173.519 138.287,172.795 137.822 C 172.070 137.357,171.760 137.216,172.104 137.509 M386.057 138.603 C 386.057 138.792,386.146 139.152,386.254 139.404 C 386.378 139.693,386.451 139.736,386.451 139.519 C 386.451 139.330,386.363 138.969,386.254 138.717 C 386.130 138.428,386.057 138.386,386.057 138.603 M175.945 139.862 C 175.945 140.015,179.180 141.629,179.282 141.527 C 179.328 141.482,178.596 141.063,177.655 140.598 C 176.715 140.133,175.945 139.801,175.945 139.862 M296.793 142.955 C 296.988 143.333,297.200 143.643,297.263 143.643 C 297.326 143.643,297.217 143.333,297.022 142.955 C 296.826 142.577,296.615 142.268,296.552 142.268 C 296.489 142.268,296.597 142.577,296.793 142.955 M184.671 143.730 C 184.848 143.920,188.096 145.022,188.414 145.000 C 188.549 144.991,187.973 144.743,187.133 144.449 C 185.023 143.711,184.514 143.562,184.671 143.730 M298.788 146.727 C 299.317 147.793,299.787 148.628,299.832 148.583 C 299.934 148.481,298.090 144.788,297.937 144.788 C 297.877 144.788,298.260 145.661,298.788 146.727 M300.360 149.943 C 300.360 150.069,300.507 150.430,300.687 150.745 C 300.867 151.060,301.015 151.214,301.015 151.088 C 301.015 150.962,300.867 150.601,300.687 150.286 C 300.507 149.971,300.360 149.817,300.360 149.943 M218.385 151.132 C 218.605 151.189,218.966 151.189,219.187 151.132 C 219.407 151.074,219.227 151.027,218.786 151.027 C 218.345 151.027,218.164 151.074,218.385 151.132 M221.939 151.594 C 222.223 151.649,222.636 151.647,222.855 151.589 C 223.074 151.532,222.841 151.487,222.337 151.490 C 221.833 151.492,221.654 151.539,221.939 151.594 M223.883 151.819 C 224.104 151.876,224.464 151.876,224.685 151.819 C 224.905 151.761,224.725 151.714,224.284 151.714 C 223.843 151.714,223.663 151.761,223.883 151.819 M225.833 152.052 C 226.118 152.107,226.530 152.105,226.750 152.047 C 226.969 151.990,226.735 151.945,226.231 151.948 C 225.727 151.950,225.548 151.997,225.833 152.052 M227.778 152.277 C 227.998 152.335,228.359 152.335,228.580 152.277 C 228.800 152.219,228.620 152.172,228.179 152.172 C 227.738 152.172,227.557 152.219,227.778 152.277 M229.840 152.506 C 230.060 152.564,230.421 152.564,230.641 152.506 C 230.862 152.449,230.682 152.401,230.241 152.401 C 229.800 152.401,229.619 152.449,229.840 152.506 M231.672 152.735 C 231.893 152.793,232.254 152.793,232.474 152.735 C 232.695 152.678,232.514 152.630,232.073 152.630 C 231.632 152.630,231.452 152.678,231.672 152.735 M235.109 153.193 C 235.329 153.251,235.690 153.251,235.911 153.193 C 236.131 153.136,235.951 153.089,235.510 153.089 C 235.069 153.089,234.888 153.136,235.109 153.193 M273.654 161.283 C 273.906 161.391,274.267 161.480,274.456 161.480 C 274.673 161.480,274.630 161.407,274.341 161.283 C 274.089 161.175,273.729 161.086,273.540 161.086 C 273.323 161.086,273.365 161.159,273.654 161.283 M276.632 162.199 C 276.884 162.308,277.245 162.396,277.434 162.396 C 277.651 162.396,277.608 162.323,277.320 162.199 C 277.068 162.091,276.707 162.002,276.518 162.002 C 276.301 162.002,276.343 162.075,276.632 162.199 M67.918 177.205 C 67.918 182.875,67.947 185.162,67.984 182.287 C 68.020 179.412,68.020 174.772,67.984 171.977 C 67.947 169.183,67.918 171.535,67.918 177.205 M392.493 168.614 C 392.493 169.055,392.540 169.235,392.598 169.015 C 392.655 168.794,392.655 168.434,392.598 168.213 C 392.540 167.993,392.493 168.173,392.493 168.614 M294.845 168.958 C 295.160 169.138,295.521 169.285,295.647 169.285 C 295.773 169.285,295.619 169.138,295.304 168.958 C 294.989 168.778,294.628 168.630,294.502 168.630 C 294.376 168.630,294.530 168.778,294.845 168.958 M296.907 169.874 C 297.222 170.054,297.583 170.201,297.709 170.201 C 297.835 170.201,297.680 170.054,297.365 169.874 C 297.050 169.694,296.690 169.547,296.564 169.547 C 296.438 169.547,296.592 169.694,296.907 169.874 M392.722 170.447 C 392.722 170.888,392.769 171.068,392.827 170.848 C 392.885 170.627,392.885 170.266,392.827 170.046 C 392.769 169.825,392.722 170.006,392.722 170.447 M299.446 170.993 C 299.679 171.209,305.155 173.875,305.155 173.772 C 305.155 173.645,299.757 170.905,299.507 170.905 C 299.421 170.905,299.394 170.945,299.446 170.993 M392.956 172.394 C 392.958 172.898,393.005 173.077,393.060 172.792 C 393.115 172.507,393.113 172.095,393.055 171.876 C 392.998 171.657,392.953 171.890,392.956 172.394 M393.190 174.800 C 393.190 175.367,393.234 175.599,393.289 175.315 C 393.343 175.032,393.343 174.568,393.289 174.284 C 393.234 174.001,393.190 174.233,393.190 174.800 M306.300 174.444 C 306.300 174.507,306.609 174.719,306.987 174.914 C 307.365 175.110,307.675 175.218,307.675 175.155 C 307.675 175.092,307.365 174.880,306.987 174.685 C 306.609 174.490,306.300 174.381,306.300 174.444 M393.422 177.434 C 393.423 178.064,393.468 178.295,393.521 177.946 C 393.573 177.598,393.572 177.083,393.518 176.801 C 393.463 176.519,393.420 176.804,393.422 177.434 M393.659 180.527 C 393.659 181.346,393.700 181.681,393.751 181.271 C 393.802 180.862,393.802 180.192,393.751 179.782 C 393.700 179.373,393.659 179.708,393.659 180.527 M393.898 185.223 C 393.899 186.483,393.937 186.970,393.984 186.304 C 394.030 185.638,394.030 184.607,393.983 184.013 C 393.935 183.419,393.898 183.963,393.898 185.223 M394.125 192.554 C 394.124 193.688,394.163 194.181,394.211 193.650 C 394.259 193.118,394.260 192.190,394.212 191.588 C 394.165 190.985,394.126 191.420,394.125 192.554 M393.898 199.885 C 393.899 201.145,393.937 201.632,393.984 200.966 C 394.030 200.300,394.030 199.269,393.983 198.675 C 393.935 198.081,393.898 198.625,393.898 199.885 M393.659 204.582 C 393.659 205.401,393.700 205.736,393.751 205.326 C 393.802 204.917,393.802 204.247,393.751 203.837 C 393.700 203.428,393.659 203.763,393.659 204.582 M67.913 210.080 C 67.913 213.545,67.944 214.963,67.983 213.230 C 68.022 211.498,68.022 208.663,67.983 206.930 C 67.944 205.198,67.913 206.615,67.913 210.080 M393.422 207.675 C 393.423 208.305,393.468 208.535,393.521 208.187 C 393.573 207.839,393.572 207.323,393.518 207.042 C 393.463 206.760,393.420 207.045,393.422 207.675 M157.444 231.443 L 157.501 254.639 157.560 231.533 L 157.620 208.427 158.249 208.573 C 158.715 208.682,158.789 208.660,158.534 208.487 C 157.313 207.661,157.383 206.188,157.444 231.443 M161.074 209.480 C 161.251 209.670,164.500 210.772,164.817 210.750 C 164.952 210.741,164.376 210.493,163.536 210.199 C 161.426 209.461,160.918 209.313,161.074 209.480 M393.190 210.309 C 393.190 210.876,393.234 211.108,393.289 210.825 C 393.343 210.541,393.343 210.077,393.289 209.794 C 393.234 209.510,393.190 209.742,393.190 210.309 M167.583 211.684 C 167.835 211.792,168.196 211.881,168.385 211.881 C 168.601 211.881,168.559 211.808,168.270 211.684 C 168.018 211.576,167.658 211.487,167.468 211.487 C 167.252 211.487,167.294 211.560,167.583 211.684 M392.956 212.486 C 392.958 212.990,393.005 213.169,393.060 212.884 C 393.115 212.599,393.113 212.187,393.055 211.968 C 392.998 211.749,392.953 211.982,392.956 212.486 M169.874 212.371 C 170.126 212.479,170.487 212.568,170.676 212.568 C 170.892 212.568,170.850 212.495,170.561 212.371 C 170.309 212.263,169.948 212.174,169.759 212.174 C 169.543 212.174,169.585 212.247,169.874 212.371 M392.722 214.433 C 392.722 214.874,392.769 215.054,392.827 214.834 C 392.885 214.613,392.885 214.253,392.827 214.032 C 392.769 213.812,392.722 213.992,392.722 214.433 M392.493 216.266 C 392.493 216.707,392.540 216.887,392.598 216.667 C 392.655 216.446,392.655 216.085,392.598 215.865 C 392.540 215.644,392.493 215.825,392.493 216.266 M210.367 221.006 C 210.587 221.063,210.948 221.063,211.168 221.006 C 211.389 220.948,211.208 220.901,210.767 220.901 C 210.326 220.901,210.146 220.948,210.367 221.006 M211.970 221.235 C 212.191 221.292,212.552 221.292,212.772 221.235 C 212.993 221.177,212.812 221.130,212.371 221.130 C 211.930 221.130,211.750 221.177,211.970 221.235 M215.407 221.693 C 215.627 221.750,215.988 221.750,216.208 221.693 C 216.429 221.635,216.249 221.588,215.808 221.588 C 215.367 221.588,215.186 221.635,215.407 221.693 M217.239 221.922 C 217.460 221.980,217.821 221.980,218.041 221.922 C 218.262 221.864,218.081 221.817,217.640 221.817 C 217.199 221.817,217.019 221.864,217.239 221.922 M219.072 222.151 C 219.293 222.209,219.653 222.209,219.874 222.151 C 220.095 222.093,219.914 222.046,219.473 222.046 C 219.032 222.046,218.852 222.093,219.072 222.151 M220.905 222.380 C 221.125 222.438,221.486 222.438,221.707 222.380 C 221.927 222.323,221.747 222.275,221.306 222.275 C 220.865 222.275,220.684 222.323,220.905 222.380 M224.341 222.838 C 224.562 222.896,224.923 222.896,225.143 222.838 C 225.364 222.781,225.183 222.734,224.742 222.734 C 224.301 222.734,224.121 222.781,224.341 222.838 M225.945 223.067 C 226.166 223.125,226.526 223.125,226.747 223.067 C 226.967 223.010,226.787 222.963,226.346 222.963 C 225.905 222.963,225.725 223.010,225.945 223.067 M251.432 227.950 C 251.684 228.058,252.045 228.146,252.234 228.146 C 252.450 228.146,252.408 228.074,252.119 227.950 C 251.867 227.841,251.506 227.753,251.317 227.753 C 251.101 227.753,251.143 227.825,251.432 227.950 M263.459 232.188 C 263.774 232.368,264.135 232.515,264.261 232.515 C 264.387 232.515,264.233 232.368,263.918 232.188 C 263.603 232.008,263.242 231.860,263.116 231.860 C 262.990 231.860,263.144 232.008,263.459 232.188 M67.918 244.330 C 67.918 250.252,67.947 252.708,67.984 249.787 C 68.020 246.866,68.020 242.020,67.984 239.019 C 67.948 236.018,67.918 238.408,67.918 244.330 M267.354 234.011 C 267.354 234.074,267.766 234.336,268.270 234.593 C 268.774 234.850,269.187 235.009,269.187 234.946 C 269.187 234.883,268.774 234.621,268.270 234.364 C 267.766 234.107,267.354 233.948,267.354 234.011 M270.905 236.087 C 271.157 236.292,271.569 236.561,271.821 236.685 L 272.279 236.910 271.821 236.537 C 271.569 236.331,271.157 236.062,270.905 235.939 L 270.447 235.714 270.905 236.087 M273.081 237.426 C 273.081 237.489,273.391 237.761,273.769 238.030 C 274.147 238.299,274.456 238.468,274.456 238.405 C 274.456 238.342,274.147 238.070,273.769 237.801 C 273.391 237.532,273.081 237.363,273.081 237.426 M387.989 238.619 C 387.905 238.955,387.880 239.274,387.934 239.328 C 387.988 239.382,388.101 239.151,388.185 238.815 C 388.270 238.480,388.294 238.161,388.240 238.107 C 388.186 238.053,388.073 238.283,387.989 238.619 M274.685 238.560 C 274.685 238.616,275.063 238.951,275.526 239.304 C 275.989 239.657,276.295 239.829,276.206 239.686 C 276.025 239.392,274.685 238.401,274.685 238.560 M276.518 239.922 C 276.518 239.976,277.059 240.471,277.721 241.023 C 278.382 241.575,278.779 241.845,278.602 241.623 C 278.246 241.177,276.518 239.766,276.518 239.922 M279.840 242.841 C 280.332 243.345,280.786 243.757,280.849 243.757 C 280.912 243.757,280.561 243.345,280.069 242.841 C 279.577 242.337,279.122 241.924,279.059 241.924 C 278.996 241.924,279.347 242.337,279.840 242.841 M283.734 246.506 C 285.242 248.018,286.528 249.255,286.591 249.255 C 286.654 249.255,285.471 248.018,283.963 246.506 C 282.455 244.994,281.170 243.757,281.107 243.757 C 281.044 243.757,282.226 244.994,283.734 246.506 M385.927 245.721 C 385.843 246.057,385.818 246.375,385.872 246.429 C 385.926 246.483,386.039 246.253,386.123 245.917 C 386.208 245.581,386.232 245.263,386.178 245.209 C 386.124 245.155,386.011 245.385,385.927 245.721 M283.276 253.608 C 282.694 254.364,282.270 254.983,282.333 254.983 C 282.396 254.983,282.923 254.364,283.505 253.608 C 284.087 252.852,284.511 252.234,284.448 252.234 C 284.385 252.234,283.858 252.852,283.276 253.608 M157.650 254.983 C 157.650 255.172,157.738 255.533,157.847 255.785 C 157.971 256.073,158.043 256.116,158.043 255.899 C 158.043 255.710,157.955 255.349,157.847 255.097 C 157.722 254.809,157.650 254.766,157.650 254.983 M280.744 256.873 C 280.016 257.786,277.814 260.188,275.850 262.211 L 272.279 265.888 276.174 261.982 C 279.480 258.666,282.540 255.212,282.172 255.212 C 282.114 255.212,281.472 255.959,280.744 256.873 M158.108 256.586 C 158.108 256.775,158.196 257.136,158.305 257.388 C 158.429 257.677,158.502 257.719,158.502 257.503 C 158.502 257.314,158.413 256.953,158.305 256.701 C 158.181 256.412,158.108 256.370,158.108 256.586 M38.030 262.199 C 38.457 262.640,38.858 263.001,38.921 263.001 C 38.984 263.001,38.686 262.640,38.259 262.199 C 37.831 261.758,37.430 261.397,37.367 261.397 C 37.304 261.397,37.602 261.758,38.030 262.199 M160.154 262.428 C 160.154 262.554,160.301 262.915,160.481 263.230 C 160.661 263.545,160.809 263.700,160.809 263.574 C 160.809 263.448,160.661 263.087,160.481 262.772 C 160.301 262.457,160.154 262.302,160.154 262.428 M379.419 263.355 C 379.035 264.197,379.108 264.377,379.523 263.611 C 379.717 263.253,379.833 262.918,379.780 262.865 C 379.728 262.813,379.565 263.033,379.419 263.355 M378.731 264.958 C 378.348 265.801,378.421 265.980,378.836 265.215 C 379.030 264.857,379.145 264.521,379.093 264.469 C 379.041 264.417,378.878 264.637,378.731 264.958 M269.072 268.660 C 266.968 270.695,266.807 270.885,268.385 269.471 C 270.404 267.662,272.126 265.968,271.924 265.991 C 271.867 265.997,270.584 267.198,269.072 268.660 M377.586 267.478 C 377.202 268.321,377.275 268.500,377.690 267.735 C 377.884 267.377,378.000 267.041,377.947 266.989 C 377.895 266.937,377.732 267.157,377.586 267.478 M164.261 269.874 C 164.530 270.252,164.802 270.561,164.865 270.561 C 164.928 270.561,164.759 270.252,164.490 269.874 C 164.221 269.496,163.949 269.187,163.886 269.187 C 163.823 269.187,163.992 269.496,164.261 269.874 M374.963 272.976 C 374.245 274.420,373.707 275.601,373.768 275.601 C 373.920 275.601,376.452 270.534,376.351 270.432 C 376.306 270.388,375.682 271.533,374.963 272.976 M165.633 271.704 C 166.031 272.206,166.476 272.691,166.622 272.781 C 166.769 272.871,166.491 272.461,166.005 271.868 C 165.520 271.275,165.075 270.790,165.016 270.790 C 164.958 270.790,165.235 271.201,165.633 271.704 M67.912 277.205 C 67.912 280.544,67.944 281.910,67.983 280.241 C 68.023 278.571,68.023 275.839,67.983 274.170 C 67.944 272.500,67.912 273.866,67.912 277.205 M265.729 271.618 C 265.561 271.821,264.180 272.981,262.660 274.195 C 261.140 275.410,259.539 276.694,259.101 277.049 L 258.305 277.694 259.107 277.167 C 261.067 275.879,266.583 271.249,266.157 271.249 C 266.090 271.249,265.898 271.415,265.729 271.618 M168.958 275.372 C 170.213 276.632,171.292 277.663,171.355 277.663 C 171.418 277.663,170.442 276.632,169.187 275.372 C 167.931 274.112,166.853 273.081,166.790 273.081 C 166.727 273.081,167.702 274.112,168.958 275.372 M372.279 278.121 C 372.022 278.625,371.864 279.038,371.927 279.038 C 371.990 279.038,372.251 278.625,372.509 278.121 C 372.766 277.617,372.925 277.205,372.862 277.205 C 372.799 277.205,372.537 277.617,372.279 278.121 M171.663 277.822 C 171.856 278.134,173.654 279.585,173.654 279.428 C 173.654 279.370,173.169 278.925,172.577 278.439 C 171.984 277.954,171.573 277.676,171.663 277.822 M256.296 278.903 C 254.620 280.045,253.757 280.722,254.525 280.294 C 255.293 279.865,258.190 277.871,258.190 277.771 C 258.190 277.611,258.213 277.597,256.296 278.903 M371.019 280.412 C 370.824 280.790,370.716 281.100,370.779 281.100 C 370.842 281.100,371.053 280.790,371.249 280.412 C 371.444 280.034,371.552 279.725,371.489 279.725 C 371.426 279.725,371.215 280.034,371.019 280.412 M250.802 282.261 C 250.329 282.510,249.943 282.765,249.943 282.828 C 249.943 282.891,250.355 282.731,250.859 282.474 C 251.363 282.217,251.775 281.957,251.775 281.897 C 251.775 281.747,251.774 281.748,250.802 282.261 M179.152 283.035 C 179.152 283.098,179.462 283.310,179.840 283.505 C 180.218 283.701,180.527 283.809,180.527 283.746 C 180.527 283.683,180.218 283.472,179.840 283.276 C 179.462 283.081,179.152 282.972,179.152 283.035 M246.048 284.651 C 245.733 284.831,245.578 284.978,245.704 284.978 C 245.830 284.978,246.191 284.831,246.506 284.651 C 246.821 284.471,246.976 284.323,246.850 284.323 C 246.724 284.323,246.363 284.471,246.048 284.651 M183.047 285.109 C 183.362 285.289,183.723 285.436,183.849 285.436 C 183.975 285.436,183.820 285.289,183.505 285.109 C 183.190 284.929,182.829 284.781,182.703 284.781 C 182.577 284.781,182.732 284.929,183.047 285.109 M367.098 287.113 C 366.309 288.451,366.258 288.566,366.659 288.087 C 367.125 287.533,367.526 286.827,367.376 286.827 C 367.316 286.827,367.190 286.956,367.098 287.113 M365.952 288.946 C 365.164 290.284,365.112 290.398,365.514 289.920 C 365.979 289.365,366.380 288.660,366.230 288.660 C 366.170 288.660,366.045 288.789,365.952 288.946 M225.487 290.421 C 225.707 290.479,226.068 290.479,226.289 290.421 C 226.509 290.364,226.329 290.317,225.888 290.317 C 225.447 290.317,225.266 290.364,225.487 290.421 M223.654 290.650 C 223.875 290.708,224.235 290.708,224.456 290.650 C 224.676 290.593,224.496 290.546,224.055 290.546 C 223.614 290.546,223.434 290.593,223.654 290.650 M221.478 290.883 C 221.761 290.938,222.225 290.938,222.509 290.883 C 222.792 290.829,222.560 290.784,221.993 290.784 C 221.426 290.784,221.194 290.829,221.478 290.883 M204.868 291.109 C 205.089 291.166,205.450 291.166,205.670 291.109 C 205.891 291.051,205.710 291.004,205.269 291.004 C 204.828 291.004,204.648 291.051,204.868 291.109 M218.614 291.115 C 218.960 291.167,219.527 291.167,219.874 291.115 C 220.221 291.062,219.937 291.019,219.244 291.019 C 218.551 291.019,218.267 291.062,218.614 291.115 M206.818 291.342 C 207.103 291.397,207.516 291.395,207.735 291.337 C 207.954 291.280,207.721 291.235,207.216 291.238 C 206.712 291.240,206.533 291.287,206.818 291.342 M213.345 291.349 C 214.069 291.395,215.255 291.395,215.979 291.349 C 216.704 291.304,216.111 291.266,214.662 291.266 C 213.213 291.266,212.620 291.304,213.345 291.349 M361.054 296.334 C 360.664 296.901,360.396 297.365,360.459 297.365 C 360.522 297.365,360.893 296.901,361.283 296.334 C 361.673 295.767,361.941 295.304,361.878 295.304 C 361.815 295.304,361.444 295.767,361.054 296.334 M359.679 298.282 C 359.410 298.660,359.241 298.969,359.304 298.969 C 359.367 298.969,359.639 298.660,359.908 298.282 C 360.178 297.904,360.346 297.595,360.283 297.595 C 360.220 297.595,359.948 297.904,359.679 298.282 M67.914 306.644 C 67.914 310.550,67.945 312.180,67.983 310.266 C 68.022 308.353,68.022 305.157,67.984 303.164 C 67.945 301.172,67.914 302.738,67.914 306.644 M357.059 301.890 C 356.344 302.867,356.061 303.324,356.431 302.906 C 357.233 302.000,358.604 300.115,358.461 300.115 C 358.406 300.115,357.775 300.914,357.059 301.890 M354.868 304.696 C 354.469 305.200,354.194 305.613,354.257 305.613 C 354.320 305.613,354.698 305.200,355.097 304.696 C 355.497 304.192,355.772 303.780,355.709 303.780 C 355.646 303.780,355.267 304.192,354.868 304.696 M350.760 309.794 C 349.478 311.337,348.873 312.127,349.415 311.549 C 350.625 310.259,353.335 306.987,353.194 306.987 C 353.137 306.987,352.042 308.250,350.760 309.794 M346.376 314.834 C 345.324 315.999,342.294 319.175,339.643 321.892 L 334.822 326.830 339.977 321.663 C 344.681 316.948,348.663 312.715,348.395 312.715 C 348.337 312.715,347.428 313.668,346.376 314.834 M18.199 323.310 L 17.526 324.055 18.270 323.382 C 18.680 323.012,19.015 322.677,19.015 322.638 C 19.015 322.461,18.826 322.616,18.199 323.310 M333.096 328.236 L 331.844 329.553 333.162 328.301 C 333.886 327.612,334.479 327.020,334.479 326.984 C 334.479 326.814,334.260 327.012,333.096 328.236 M329.897 331.077 L 328.179 332.699 329.842 331.272 C 331.316 330.008,331.908 329.422,331.686 329.447 C 331.647 329.451,330.842 330.185,329.897 331.077 M67.920 346.392 C 67.920 354.645,67.949 358.021,67.984 353.895 C 68.019 349.768,68.019 343.015,67.984 338.889 C 67.949 334.762,67.920 338.139,67.920 346.392 M326.690 333.824 L 325.430 334.988 326.632 334.025 C 327.686 333.181,328.243 332.630,328.020 332.653 C 327.981 332.657,327.383 333.184,326.690 333.824 M323.867 336.066 C 321.982 337.625,321.727 337.968,323.425 336.660 C 324.695 335.682,325.531 334.913,325.286 334.950 C 325.239 334.957,324.600 335.459,323.867 336.066 M320.848 338.513 L 319.931 339.333 320.905 338.605 C 321.743 337.978,322.045 337.676,321.821 337.690 C 321.790 337.691,321.352 338.062,320.848 338.513 M316.037 342.057 C 314.678 343.085,314.495 343.375,315.769 342.481 C 316.732 341.806,317.256 341.337,317.024 341.358 C 316.985 341.362,316.541 341.676,316.037 342.057 M313.058 344.235 L 312.371 344.826 313.116 344.333 C 313.525 344.062,313.860 343.796,313.860 343.742 C 313.860 343.570,313.763 343.630,313.058 344.235 M306.586 348.480 C 305.806 348.980,305.553 349.316,306.243 348.937 C 306.768 348.648,307.592 348.011,307.446 348.007 C 307.383 348.005,306.996 348.218,306.586 348.480 M297.995 353.625 C 297.139 354.089,297.191 354.283,298.053 353.837 C 298.431 353.642,298.740 353.433,298.740 353.373 C 298.740 353.226,298.715 353.234,297.995 353.625 M296.163 354.655 C 295.690 354.904,295.304 355.159,295.304 355.222 C 295.304 355.285,295.716 355.125,296.220 354.868 C 296.724 354.611,297.136 354.351,297.136 354.291 C 297.136 354.141,297.135 354.142,296.163 354.655 M293.414 356.143 C 292.815 356.455,292.325 356.761,292.325 356.824 C 292.325 356.887,292.841 356.677,293.471 356.357 C 294.101 356.038,294.616 355.727,294.616 355.666 C 294.616 355.515,294.637 355.507,293.414 356.143 M285.223 360.252 C 284.656 360.556,284.296 360.804,284.422 360.804 C 284.548 360.804,285.115 360.556,285.682 360.252 C 286.249 359.948,286.609 359.700,286.483 359.700 C 286.357 359.700,285.790 359.948,285.223 360.252 M282.245 361.627 C 281.930 361.807,281.775 361.954,281.901 361.954 C 282.027 361.954,282.388 361.807,282.703 361.627 C 283.018 361.447,283.173 361.299,283.047 361.299 C 282.921 361.299,282.560 361.447,282.245 361.627 M280.183 362.543 C 279.868 362.723,279.714 362.870,279.840 362.870 C 279.966 362.870,280.326 362.723,280.641 362.543 C 280.956 362.363,281.111 362.216,280.985 362.216 C 280.859 362.216,280.498 362.363,280.183 362.543 M278.580 363.230 C 278.265 363.410,278.110 363.558,278.236 363.558 C 278.362 363.558,278.723 363.410,279.038 363.230 C 279.353 363.050,279.507 362.903,279.381 362.903 C 279.255 362.903,278.895 363.050,278.580 363.230 M259.908 369.989 C 259.620 370.113,259.577 370.185,259.794 370.185 C 259.983 370.185,260.344 370.097,260.596 369.989 C 260.884 369.864,260.927 369.792,260.710 369.792 C 260.521 369.792,260.160 369.880,259.908 369.989 M229.381 376.561 C 229.602 376.619,229.963 376.619,230.183 376.561 C 230.404 376.504,230.223 376.456,229.782 376.456 C 229.341 376.456,229.161 376.504,229.381 376.561 M227.437 376.794 C 227.722 376.849,228.134 376.847,228.353 376.790 C 228.572 376.732,228.339 376.688,227.835 376.690 C 227.331 376.693,227.152 376.740,227.437 376.794 M225.375 377.023 C 225.660 377.078,226.072 377.076,226.291 377.019 C 226.510 376.961,226.277 376.917,225.773 376.919 C 225.269 376.922,225.090 376.969,225.375 377.023 M222.852 377.252 C 223.136 377.307,223.600 377.307,223.883 377.252 C 224.167 377.198,223.935 377.153,223.368 377.153 C 222.801 377.153,222.569 377.198,222.852 377.252 M219.989 377.484 C 220.335 377.536,220.902 377.536,221.249 377.484 C 221.595 377.431,221.312 377.388,220.619 377.388 C 219.926 377.388,219.642 377.431,219.989 377.484 M216.094 377.716 C 216.566 377.765,217.340 377.765,217.812 377.716 C 218.285 377.666,217.898 377.626,216.953 377.626 C 216.008 377.626,215.621 377.666,216.094 377.716 M123.443 377.950 C 140.117 377.982,167.334 377.982,183.925 377.950 C 200.515 377.917,186.873 377.891,153.608 377.891 C 120.344 377.891,106.769 377.917,123.443 377.950 " stroke="none" fill="#bf8904" fill-rule="evenodd"></path><path id="path3" d="M87.505 15.865 C 88.454 16.876,88.660 17.058,88.660 16.886 C 88.660 16.849,88.170 16.360,87.572 15.798 L 86.483 14.777 87.505 15.865 M95.128 32.532 C 95.128 32.973,95.175 33.153,95.232 32.932 C 95.290 32.712,95.290 32.351,95.232 32.131 C 95.175 31.910,95.128 32.090,95.128 32.532 M95.128 38.030 C 95.128 38.471,95.175 38.651,95.232 38.431 C 95.290 38.210,95.290 37.849,95.232 37.629 C 95.175 37.408,95.128 37.589,95.128 38.030 M74.902 42.784 L 74.112 43.643 74.971 42.853 C 75.444 42.419,75.830 42.032,75.830 41.994 C 75.830 41.819,75.637 41.984,74.902 42.784 M87.743 54.410 C 87.187 54.977,86.783 55.441,86.846 55.441 C 86.909 55.441,87.416 54.977,87.973 54.410 C 88.529 53.843,88.933 53.379,88.870 53.379 C 88.807 53.379,88.300 53.843,87.743 54.410 M77.968 78.236 C 77.969 79.118,78.010 79.451,78.060 78.975 C 78.109 78.500,78.108 77.778,78.058 77.372 C 78.007 76.965,77.966 77.354,77.968 78.236 M94.014 79.496 C 94.014 80.819,94.052 81.360,94.098 80.699 C 94.144 80.037,94.144 78.955,94.098 78.293 C 94.052 77.632,94.014 78.173,94.014 79.496 M69.137 102.116 C 69.803 102.163,70.834 102.162,71.428 102.115 C 72.022 102.068,71.478 102.030,70.218 102.031 C 68.958 102.032,68.471 102.070,69.137 102.116 M74.284 149.313 C 77.781 149.348,83.502 149.348,86.999 149.313 C 90.495 149.277,87.635 149.248,80.641 149.248 C 73.648 149.248,70.788 149.277,74.284 149.313 M74.186 166.953 C 77.754 166.988,83.528 166.988,87.015 166.953 C 90.503 166.917,87.583 166.888,80.527 166.888 C 73.471 166.888,70.617 166.917,74.186 166.953 M74.284 204.066 C 77.781 204.102,83.502 204.102,86.999 204.066 C 90.495 204.031,87.635 204.002,80.641 204.002 C 73.648 204.002,70.788 204.031,74.284 204.066 M75.888 216.208 C 80.266 216.243,87.431 216.243,91.810 216.208 C 96.188 216.174,92.606 216.145,83.849 216.145 C 75.092 216.145,71.509 216.174,75.888 216.208 M117.516 223.196 C 118.466 224.207,118.671 224.389,118.671 224.217 C 118.671 224.180,118.182 223.691,117.583 223.129 L 116.495 222.108 117.516 223.196 M125.139 240.550 C 125.139 240.991,125.186 241.171,125.244 240.951 C 125.301 240.730,125.301 240.369,125.244 240.149 C 125.186 239.928,125.139 240.109,125.139 240.550 M109.561 242.153 C 109.561 242.595,109.608 242.775,109.665 242.554 C 109.723 242.334,109.723 241.973,109.665 241.753 C 109.608 241.532,109.561 241.712,109.561 242.153 M109.561 243.986 C 109.561 244.427,109.608 244.608,109.665 244.387 C 109.723 244.167,109.723 243.806,109.665 243.585 C 109.608 243.365,109.561 243.545,109.561 243.986 M125.139 245.590 C 125.139 246.031,125.186 246.211,125.244 245.991 C 125.301 245.770,125.301 245.410,125.244 245.189 C 125.186 244.968,125.139 245.149,125.139 245.590 M95.145 246.621 C 95.147 247.377,95.190 247.659,95.240 247.247 C 95.291 246.835,95.290 246.216,95.238 245.872 C 95.186 245.528,95.144 245.865,95.145 246.621 M95.140 249.141 C 95.142 249.771,95.186 250.001,95.239 249.653 C 95.292 249.305,95.290 248.790,95.236 248.508 C 95.181 248.226,95.138 248.511,95.140 249.141 M106.633 250.458 L 105.727 251.432 106.701 250.526 C 107.607 249.684,107.780 249.485,107.607 249.485 C 107.569 249.485,107.131 249.923,106.633 250.458 M75.014 251.833 L 74.341 252.577 75.086 251.904 C 75.780 251.277,75.936 251.088,75.759 251.088 C 75.719 251.088,75.384 251.423,75.014 251.833 M99.303 253.438 C 99.242 253.596,99.221 257.384,99.255 261.857 L 99.319 269.989 99.373 261.698 L 99.427 253.408 100.172 253.316 L 100.916 253.223 100.165 253.187 C 99.743 253.166,99.364 253.276,99.303 253.438 M88.881 262.257 L 87.629 263.574 88.946 262.322 C 89.671 261.633,90.263 261.040,90.263 261.004 C 90.263 260.834,90.044 261.033,88.881 262.257 M101.435 269.807 C 101.719 269.862,102.132 269.860,102.351 269.802 C 102.570 269.745,102.337 269.700,101.833 269.703 C 101.329 269.705,101.150 269.752,101.435 269.807 M74.284 299.828 C 77.781 299.864,83.502 299.864,86.999 299.828 C 90.495 299.792,87.635 299.763,80.641 299.763 C 73.648 299.763,70.788 299.792,74.284 299.828 M82.474 321.263 C 82.474 321.302,82.809 321.637,83.219 322.008 L 83.963 322.680 83.290 321.936 C 82.663 321.242,82.474 321.086,82.474 321.263 M72.279 334.708 C 72.900 335.338,73.459 335.853,73.522 335.853 C 73.585 335.853,73.129 335.338,72.509 334.708 C 71.888 334.078,71.329 333.562,71.266 333.562 C 71.203 333.562,71.659 334.078,72.279 334.708 M76.576 343.757 C 76.578 344.261,76.625 344.440,76.680 344.155 C 76.735 343.870,76.733 343.458,76.675 343.239 C 76.618 343.020,76.573 343.253,76.576 343.757 M70.058 361.454 C 71.356 361.495,73.418 361.495,74.640 361.454 C 75.862 361.412,74.800 361.379,72.279 361.379 C 69.759 361.379,68.760 361.413,70.058 361.454 " stroke="none" fill="#fcce4b" fill-rule="evenodd"></path><path id="path4" d="M66.266 7.263 L 67.354 7.356 67.354 26.702 C 67.354 37.342,67.431 46.048,67.526 46.048 C 67.620 46.048,67.646 37.311,67.583 26.632 L 67.468 7.216 66.323 7.193 L 65.178 7.170 66.266 7.263 M62.142 7.495 C 62.489 7.548,63.056 7.548,63.402 7.495 C 63.749 7.443,63.465 7.400,62.772 7.400 C 62.079 7.400,61.796 7.443,62.142 7.495 M59.739 7.722 C 60.024 7.777,60.437 7.775,60.656 7.718 C 60.875 7.660,60.641 7.615,60.137 7.618 C 59.633 7.620,59.454 7.667,59.739 7.722 M39.397 16.438 L 38.144 17.755 39.462 16.503 C 40.186 15.814,40.779 15.221,40.779 15.185 C 40.779 15.015,40.560 15.214,39.397 16.438 M54.926 32.245 C 54.958 35.490,55.013 39.588,55.048 41.352 C 55.083 43.116,55.134 40.461,55.161 35.452 C 55.189 30.444,55.135 26.346,55.040 26.346 C 54.946 26.346,54.894 29.000,54.926 32.245 M32.585 30.928 C 32.585 31.369,32.632 31.549,32.689 31.329 C 32.747 31.108,32.747 30.747,32.689 30.527 C 32.632 30.306,32.585 30.487,32.585 30.928 M32.392 35.281 C 32.392 36.982,32.428 37.678,32.472 36.827 C 32.516 35.977,32.516 34.585,32.472 33.734 C 32.428 32.884,32.392 33.580,32.392 35.281 M49.547 35.281 C 49.547 35.848,49.592 36.080,49.646 35.796 C 49.701 35.513,49.701 35.049,49.646 34.765 C 49.592 34.482,49.547 34.714,49.547 35.281 M52.224 42.440 C 53.173 43.451,53.379 43.633,53.379 43.461 C 53.379 43.424,52.889 42.935,52.291 42.373 L 51.203 41.352 52.224 42.440 M39.748 54.525 C 40.240 55.029,40.694 55.441,40.757 55.441 C 40.820 55.441,40.469 55.029,39.977 54.525 C 39.485 54.021,39.031 53.608,38.968 53.608 C 38.905 53.608,39.256 54.021,39.748 54.525 M45.819 58.990 C 45.819 59.145,47.680 60.071,47.783 59.968 C 47.832 59.920,47.409 59.656,46.845 59.382 C 46.281 59.108,45.819 58.932,45.819 58.990 M59.854 63.166 C 60.202 63.218,60.718 63.217,61.000 63.162 C 61.281 63.108,60.997 63.065,60.367 63.067 C 59.737 63.068,59.506 63.113,59.854 63.166 M66.612 63.163 C 66.897 63.218,67.309 63.216,67.528 63.159 C 67.747 63.101,67.514 63.056,67.010 63.059 C 66.506 63.061,66.327 63.108,66.612 63.163 M33.501 79.321 L 33.555 85.567 33.620 79.439 L 33.684 73.310 40.779 73.310 L 47.873 73.310 47.940 79.324 L 48.007 85.338 48.001 79.267 L 47.995 73.196 40.722 73.135 L 33.448 73.075 33.501 79.321 M17.063 93.757 L 17.068 102.062 25.252 102.122 L 33.437 102.182 33.500 106.246 L 33.562 110.309 40.779 110.309 L 47.995 110.309 48.058 106.245 L 48.121 102.181 58.024 102.119 L 67.927 102.057 57.904 102.002 L 47.881 101.947 47.881 106.071 L 47.881 110.195 40.779 110.195 L 33.677 110.195 33.677 106.071 L 33.677 101.947 25.432 101.947 L 17.188 101.947 17.123 93.700 L 17.059 85.452 17.063 93.757 M33.551 128.751 C 33.551 133.351,33.582 135.232,33.619 132.932 C 33.657 130.633,33.657 126.870,33.619 124.570 C 33.582 122.271,33.551 124.152,33.551 128.751 M59.750 149.312 C 61.300 149.352,63.775 149.352,65.248 149.312 C 66.721 149.272,65.452 149.240,62.428 149.240 C 59.404 149.240,58.199 149.272,59.750 149.312 M54.699 149.532 C 54.984 149.587,55.396 149.585,55.616 149.527 C 55.835 149.470,55.601 149.425,55.097 149.428 C 54.593 149.430,54.414 149.477,54.699 149.532 M60.195 166.952 C 61.612 166.992,63.932 166.992,65.349 166.952 C 66.767 166.912,65.607 166.879,62.772 166.879 C 59.937 166.879,58.777 166.912,60.195 166.952 M52.680 169.473 L 51.890 170.332 52.749 169.543 C 53.549 168.808,53.714 168.614,53.539 168.614 C 53.500 168.614,53.114 169.001,52.680 169.473 M32.131 170.103 C 32.134 170.607,32.181 170.786,32.235 170.501 C 32.290 170.216,32.288 169.804,32.231 169.585 C 32.173 169.366,32.129 169.599,32.131 170.103 M50.963 171.843 C 50.761 172.232,50.637 172.592,50.687 172.642 C 50.736 172.691,50.948 172.372,51.158 171.933 C 51.629 170.945,51.466 170.869,50.963 171.843 M32.126 175.029 C 32.126 175.470,32.174 175.650,32.231 175.430 C 32.289 175.209,32.289 174.848,32.231 174.628 C 32.174 174.407,32.126 174.588,32.126 175.029 M49.787 177.090 C 49.787 177.910,49.829 178.245,49.879 177.835 C 49.930 177.426,49.930 176.755,49.879 176.346 C 49.829 175.936,49.787 176.271,49.787 177.090 M33.558 195.704 L 33.562 204.009 50.687 204.011 L 67.812 204.014 50.747 203.953 L 33.683 203.892 33.618 195.646 L 33.554 187.400 33.558 195.704 M33.552 216.324 C 33.492 216.482,33.470 220.271,33.505 224.743 L 33.568 232.875 33.623 224.572 L 33.677 216.269 50.802 216.208 L 67.927 216.148 50.795 216.092 C 37.221 216.048,33.640 216.096,33.552 216.324 M60.882 233.610 C 61.166 233.664,61.629 233.664,61.913 233.610 C 62.196 233.555,61.964 233.510,61.397 233.510 C 60.830 233.510,60.599 233.555,60.882 233.610 M65.811 233.612 C 66.159 233.665,66.674 233.664,66.956 233.609 C 67.238 233.555,66.953 233.512,66.323 233.513 C 65.693 233.515,65.462 233.560,65.811 233.612 M52.337 237.171 L 51.432 238.144 52.405 237.239 C 53.311 236.397,53.484 236.197,53.311 236.197 C 53.274 236.197,52.836 236.635,52.337 237.171 M49.796 244.444 C 49.796 245.641,49.835 246.131,49.882 245.533 C 49.929 244.934,49.929 243.955,49.882 243.356 C 49.835 242.758,49.796 243.247,49.796 244.444 M31.931 247.652 C 31.931 249.101,31.968 249.694,32.014 248.969 C 32.059 248.245,32.059 247.059,32.014 246.334 C 31.968 245.610,31.931 246.203,31.931 247.652 M62.486 255.382 C 63.273 255.426,64.562 255.426,65.349 255.382 C 66.137 255.337,65.493 255.300,63.918 255.300 C 62.342 255.300,61.698 255.337,62.486 255.382 M57.789 271.177 C 58.010 271.235,58.371 271.235,58.591 271.177 C 58.812 271.120,58.631 271.073,58.190 271.073 C 57.749 271.073,57.569 271.120,57.789 271.177 M59.970 271.415 C 60.382 271.466,61.000 271.465,61.344 271.412 C 61.689 271.360,61.352 271.318,60.596 271.320 C 59.840 271.321,59.558 271.364,59.970 271.415 M65.926 271.415 C 66.338 271.466,66.957 271.465,67.301 271.412 C 67.645 271.360,67.308 271.318,66.552 271.320 C 65.796 271.321,65.514 271.364,65.926 271.415 M33.558 291.466 L 33.562 299.771 50.687 299.773 L 67.812 299.775 50.747 299.714 L 33.683 299.653 33.618 291.407 L 33.554 283.161 33.558 291.466 M46.911 311.506 C 47.323 311.557,47.942 311.556,48.286 311.504 C 48.630 311.452,48.293 311.410,47.537 311.411 C 46.781 311.412,46.500 311.455,46.911 311.506 M54.811 311.504 C 55.158 311.557,55.725 311.557,56.071 311.504 C 56.418 311.452,56.134 311.409,55.441 311.409 C 54.748 311.409,54.464 311.452,54.811 311.504 M44.502 311.727 C 44.722 311.785,45.083 311.785,45.304 311.727 C 45.524 311.670,45.344 311.622,44.903 311.622 C 44.462 311.622,44.281 311.670,44.502 311.727 M57.789 311.727 C 58.010 311.785,58.371 311.785,58.591 311.727 C 58.812 311.670,58.631 311.622,58.190 311.622 C 57.749 311.622,57.569 311.670,57.789 311.727 M19.690 322.050 L 18.900 322.910 19.759 322.120 C 20.232 321.686,20.619 321.299,20.619 321.261 C 20.619 321.086,20.425 321.251,19.690 322.050 M16.941 324.800 L 16.151 325.659 17.010 324.869 C 17.483 324.435,17.869 324.048,17.869 324.010 C 17.869 323.835,17.676 324.000,16.941 324.800 M47.938 327.544 C 48.411 327.593,49.184 327.593,49.656 327.544 C 50.129 327.494,49.742 327.454,48.797 327.454 C 47.852 327.454,47.466 327.494,47.938 327.544 M52.400 327.542 C 52.807 327.593,53.529 327.594,54.004 327.544 C 54.479 327.494,54.147 327.453,53.265 327.452 C 52.383 327.451,51.994 327.492,52.400 327.542 M55.727 327.764 C 55.948 327.822,56.309 327.822,56.529 327.764 C 56.750 327.706,56.569 327.659,56.128 327.659 C 55.687 327.659,55.507 327.706,55.727 327.764 M66.667 330.813 C 67.108 331.055,67.572 331.252,67.698 331.252 C 67.824 331.252,67.566 331.055,67.125 330.813 C 66.684 330.572,66.220 330.374,66.094 330.374 C 65.968 330.374,66.226 330.572,66.667 330.813 M30.470 334.364 C 29.913 334.931,29.509 335.395,29.572 335.395 C 29.635 335.395,30.142 334.931,30.699 334.364 C 31.255 333.797,31.659 333.333,31.596 333.333 C 31.533 333.333,31.026 333.797,30.470 334.364 M9.909 341.237 C 9.911 341.741,9.958 341.920,10.013 341.635 C 10.068 341.350,10.066 340.938,10.008 340.719 C 9.951 340.500,9.906 340.733,9.909 341.237 M26.399 342.726 C 26.399 343.167,26.446 343.348,26.504 343.127 C 26.561 342.907,26.561 342.546,26.504 342.325 C 26.446 342.105,26.399 342.285,26.399 342.726 M9.734 360.481 L 9.737 377.892 38.717 377.894 L 67.698 377.895 38.776 377.835 L 9.854 377.776 9.793 360.423 L 9.732 343.070 9.734 360.481 M36.581 361.455 C 42.273 361.489,51.654 361.489,57.428 361.455 C 63.202 361.421,58.545 361.393,47.079 361.393 C 35.613 361.393,30.889 361.421,36.581 361.455 " stroke="none" fill="#a7a7a7" fill-rule="evenodd"></path></g></svg>